<svg width="25" height="26" viewBox="0 0 25 26" fill="none" xmlns="http://www.w3.org/2000/svg">
<path fill-rule="evenodd" clip-rule="evenodd" d="M12.5002 2.58333H11.7189V4.14583H12.5002C13.5298 4.14583 14.5602 4.3254 15.5432 4.68518C17.5809 5.43095 19.2739 6.89906 20.3006 8.81077C21.3272 10.7225 21.6162 12.9447 21.1125 15.0553C20.6087 17.166 19.3475 19.0182 17.5682 20.2603C15.7888 21.5023 13.6154 22.0477 11.4605 21.7929C9.30549 21.5381 7.31915 20.5008 5.87858 18.878L4.71007 19.9153C6.40486 21.8245 8.74172 23.0448 11.2769 23.3446C13.8121 23.6444 16.3692 23.0027 18.4626 21.5415C20.5559 20.0802 22.0396 17.9011 22.6322 15.418C23.2249 12.9349 22.885 10.3206 21.6771 8.07149C20.4692 5.82243 18.4776 4.09523 16.0802 3.21785C14.9236 2.7946 13.7115 2.58333 12.5002 2.58333ZM13.2814 7.79167V12.6185C13.2814 13.3844 12.9747 14.1183 12.4298 14.6565L10.4451 16.6171L9.34698 15.5055L11.3318 13.5449C11.5795 13.3002 11.7189 12.9667 11.7189 12.6185V7.79167H13.2814ZM9.37516 4.14679C9.37516 4.72156 8.90879 5.1875 8.3335 5.1875C7.7582 5.1875 7.29183 4.72156 7.29183 4.14679C7.29183 3.57202 7.7582 3.10608 8.3335 3.10608C8.90879 3.10608 9.37516 3.57202 9.37516 4.14679ZM4.68766 8.31058C5.26295 8.31058 5.72933 7.84464 5.72933 7.26987C5.72933 6.6951 5.26295 6.22917 4.68766 6.22917C4.11237 6.22917 3.646 6.6951 3.646 7.26987C3.646 7.84464 4.11237 8.31058 4.68766 8.31058ZM4.16683 11.9574C4.16683 12.5322 3.70045 12.9981 3.12516 12.9981C2.54987 12.9981 2.0835 12.5322 2.0835 11.9574C2.0835 11.3826 2.54987 10.9167 3.12516 10.9167C3.70045 10.9167 4.16683 11.3826 4.16683 11.9574ZM3.646 17.6856C4.22129 17.6856 4.68766 17.2197 4.68766 16.6449C4.68766 16.0701 4.22129 15.6042 3.646 15.6042C3.0707 15.6042 2.60433 16.0701 2.60433 16.6449C2.60433 17.2197 3.0707 17.6856 3.646 17.6856Z" fill="#097ED3"/>
</svg>
