<svg width="25" height="26" viewBox="0 0 25 26" fill="none" xmlns="http://www.w3.org/2000/svg">
<path fill-rule="evenodd" clip-rule="evenodd" d="M3.646 8.28361V18.2083C3.646 19.0713 4.34555 19.7708 5.2085 19.7708H19.7918C20.6547 19.7708 21.3543 19.0713 21.3543 18.2083V8.2836L13.0269 15.8881C12.7286 16.1605 12.2717 16.1605 11.9734 15.8881L3.646 8.28361ZM21.2869 6.22917H3.71339L12.5002 14.2532L21.2869 6.22917ZM2.0835 5.70833C2.0835 5.13304 2.54987 4.66667 3.12516 4.66667H21.8752C22.4505 4.66667 22.9168 5.13304 22.9168 5.70833V18.2083C22.9168 19.9343 21.5178 21.3333 19.7918 21.3333H5.2085C3.48261 21.3333 2.0835 19.9343 2.0835 18.2083V5.70833Z" fill="#097ED3"/>
</svg>
