<svg width="24" height="25" viewBox="0 0 24 25" fill="none" xmlns="http://www.w3.org/2000/svg">
<path fill-rule="evenodd" clip-rule="evenodd" d="M18.5 9.99778C18.5 11.6711 18.2433 12.8391 17.339 14.344C16.4097 15.8907 14.8032 17.7814 12.0033 20.7839C9.19984 17.7812 7.59173 15.8903 6.66161 14.3437C5.75667 12.8389 5.5 11.671 5.5 9.99778C5.5 6.9389 8.33729 4.01514 12 4.01514C15.6627 4.01514 18.5 6.9389 18.5 9.99778ZM20 9.99778C20 13.8072 18.7554 15.7709 12.732 22.2009C12.3389 22.6206 11.6687 22.6208 11.2753 22.2013C5.24465 15.771 4 13.8073 4 9.99778C4 6.03944 7.58172 2.51514 12 2.51514C16.4183 2.51514 20 6.03944 20 9.99778ZM13.5 10.5151C13.5 11.3435 12.8284 12.0151 12 12.0151C11.1716 12.0151 10.5 11.3435 10.5 10.5151C10.5 9.68671 11.1716 9.01514 12 9.01514C12.8284 9.01514 13.5 9.68671 13.5 10.5151ZM15 10.5151C15 12.172 13.6569 13.5151 12 13.5151C10.3431 13.5151 9 12.172 9 10.5151C9 8.85829 10.3431 7.51514 12 7.51514C13.6569 7.51514 15 8.85829 15 10.5151Z" fill="#097ED3"/>
</svg>
