<svg width="24" height="25" viewBox="0 0 24 25" fill="none" xmlns="http://www.w3.org/2000/svg">
<path fill-rule="evenodd" clip-rule="evenodd" d="M4.70026 4.51499C4.68918 4.51444 4.67804 4.51416 4.66683 4.51416C4.29866 4.51416 4.00018 4.81268 4.00018 5.18091V6.75232C4.00018 14.3529 10.1629 20.5142 17.7621 20.5142H19.3335C19.7017 20.5142 20.0002 20.2156 20.0002 19.8474C20.0002 19.8359 19.9999 19.8245 19.9993 19.8131V16.6399C19.9993 16.3643 19.8298 16.1171 19.5726 16.0179L15.7955 14.5602C15.5716 14.4737 15.3185 14.5144 15.1329 14.6666L11.6108 17.5539C9.67523 16.4492 8.06516 14.8392 6.96037 12.9037L9.84881 9.38205C10.0011 9.19631 10.0418 8.94298 9.95525 8.7189L8.49615 4.94146C8.39688 4.68445 8.14978 4.51499 7.8743 4.51499H4.70026ZM6.31137 11.5924L8.57147 8.83684L7.41717 5.84849H5.33349V6.75232C5.33349 8.46922 5.68171 10.1048 6.31137 11.5924ZM17.7621 19.1807C16.0454 19.1807 14.4099 18.8325 12.9223 18.2029L15.6778 15.9441L18.666 17.0973V19.1807H17.7621Z" fill="#097ED3"/>
</svg>
