<svg width="124" height="124" viewBox="0 0 124 124" fill="none" xmlns="http://www.w3.org/2000/svg">
<path d="M62 0C36.363 0 15.5 21.0077 15.5 46.8358C15.5 83.5347 57.629 121.427 59.4218 123.018C60.1607 123.674 61.0803 124 62 124C62.9197 124 63.8393 123.675 64.5782 123.024C66.371 121.427 108.5 83.5347 108.5 46.8358C108.5 21.0077 87.637 0 62 0ZM62 72.3333C47.7555 72.3333 36.1667 60.7445 36.1667 46.5C36.1667 32.2555 47.7555 20.6667 62 20.6667C76.2445 20.6667 87.8333 32.2555 87.8333 46.5C87.8333 60.7445 76.2445 72.3333 62 72.3333Z" fill="#097ED3"/>
<path d="M49.7836 56.225C49.7284 56.225 49.6778 56.1955 49.6502 56.1457L43.6553 45.3683C43.6292 45.3216 43.6292 45.2641 43.6553 45.2159L52.1028 29.8091C52.1304 29.7594 52.181 29.7299 52.2361 29.7299H56.358C56.4116 29.7299 56.4622 29.7594 56.4898 29.806C56.5174 29.8542 56.5174 29.9117 56.4913 29.9599L48.0852 45.2921L51.9189 52.39H69.2339C69.289 52.39 69.3396 52.4196 69.3672 52.4678C69.3948 52.5159 69.3948 52.575 69.3672 52.6232L67.3577 56.1473C67.3301 56.1955 67.2795 56.225 67.2243 56.225H49.7836Z" fill="#ED1C24"/>
<path d="M56.3576 29.8853L47.9101 45.2921L51.8281 52.547H69.235L67.2255 56.0711H49.7832L43.7883 45.2921L52.2358 29.8853H56.3576ZM56.3591 29.5744H52.2373C52.1254 29.5744 52.0227 29.635 51.9691 29.7345L43.52 45.1413C43.4679 45.2361 43.4679 45.3512 43.52 45.4444L49.515 56.2219C49.5686 56.3198 49.6713 56.3805 49.7817 56.3805H67.2224C67.3313 56.3805 67.4324 56.3214 67.4876 56.225L69.4972 52.7009C69.5523 52.6045 69.5523 52.4864 69.4972 52.39C69.442 52.2936 69.3408 52.2346 69.232 52.2346H52.0089L48.2596 45.2921L56.6197 30.0485C56.6489 30.0019 56.6657 29.9459 56.6657 29.8853C56.6657 29.7143 56.5293 29.5744 56.3591 29.5744Z" fill="#1C1A00"/>
<path d="M53.1451 61.843C53.0899 61.843 53.0393 61.8135 53.0117 61.7653L51.0021 58.2412C50.9745 58.193 50.9745 58.134 51.0021 58.0858C51.0297 58.0376 51.0803 58.008 51.1355 58.008H68.4505L72.2841 50.9101L63.878 35.5779C63.852 35.5297 63.852 35.4707 63.8796 35.424C63.9072 35.3759 63.9577 35.3479 64.0114 35.3479H68.1332C68.1884 35.3479 68.2405 35.379 68.2666 35.4272L76.7141 50.8339C76.7401 50.8806 76.7401 50.9381 76.7141 50.9863L70.7191 61.7637C70.6915 61.8119 70.6409 61.843 70.5858 61.843H53.1451Z" fill="#0077C0"/>
<path d="M68.1333 35.5018L76.5808 50.9086L70.5859 61.686H53.1451L51.1356 58.1619H68.5426L72.4605 50.907L64.013 35.5002H68.1348M68.1333 35.1909H64.0115C63.9026 35.1909 63.803 35.2499 63.7478 35.3448C63.6926 35.4396 63.6911 35.5577 63.7448 35.6541L72.1095 50.9117L68.3602 57.8541H51.1356C51.0268 57.8541 50.9241 57.9132 50.8704 58.0096C50.8168 58.106 50.8152 58.2241 50.8704 58.3205L52.88 61.8446C52.9351 61.941 53.0363 62 53.1451 62H70.5859C70.6962 62 70.7989 61.9394 70.8526 61.8415L76.8475 51.064C76.8996 50.9692 76.8996 50.8541 76.8475 50.7609L68.4 35.3541C68.3464 35.2561 68.2437 35.194 68.1318 35.194L68.1333 35.1909Z" fill="#1C1A00"/>
<path d="M77.5156 49.0214C77.4604 49.0214 77.4098 48.9903 77.3838 48.9421L68.9302 33.6161H60.6375L52.5211 48.6079C52.495 48.6576 52.4429 48.6887 52.3877 48.6887C52.3325 48.6887 52.2804 48.6576 52.2543 48.6094L50.2417 44.961C50.2157 44.9144 50.2157 44.8568 50.2417 44.8102L58.401 29.8107C58.4286 29.7609 58.4792 29.7299 58.5359 29.7299H71.0562C71.1114 29.7299 71.1635 29.7609 71.1896 29.8091L79.703 45.2906C79.729 45.3387 79.729 45.3978 79.7014 45.446L77.6505 48.9452C77.6229 48.9919 77.5723 49.0214 77.5187 49.0214H77.5171H77.5156Z" fill="white"/>
<path d="M71.0562 29.8853L79.5696 45.3667L77.5186 48.8659L69.0221 33.4591H60.5485L52.3877 48.5317L50.375 44.8833L58.5359 29.8853H71.0562ZM71.0562 29.5744H58.5359C58.424 29.5744 58.3213 29.6366 58.2677 29.7345L50.1068 44.7325C50.0562 44.8258 50.0562 44.9408 50.1068 45.0341L52.1194 48.6825C52.1731 48.7804 52.2758 48.8411 52.3877 48.8411C52.4996 48.8411 52.6023 48.7789 52.6559 48.6794L60.7294 33.77H68.8412L77.2504 49.0167C77.304 49.1131 77.4037 49.1737 77.514 49.1753C77.514 49.1753 77.5171 49.1753 77.5186 49.1753C77.6259 49.1753 77.7271 49.1178 77.7823 49.0229L79.8332 45.5237C79.8884 45.4289 79.89 45.3108 79.8378 45.2128L71.3229 29.7345C71.2692 29.6366 71.1665 29.5744 71.0546 29.5744H71.0562Z" fill="#1C1A00"/>
<path d="M61.6797 40.8633C59.0034 40.8633 56.8252 43.0722 56.8252 45.7864C56.8252 48.5006 59.0034 50.7096 61.6797 50.7096C64.3561 50.7096 66.5342 48.5006 66.5342 45.7864C66.5342 43.0722 64.3561 40.8633 61.6797 40.8633Z" fill="#1C1A00"/>
</svg>
