<svg width="60" height="60" viewBox="0 0 60 60" fill="none" xmlns="http://www.w3.org/2000/svg">
<path fill-rule="evenodd" clip-rule="evenodd" d="M6.72944 4.47937C7.41978 4.47937 7.98006 5.03965 7.98006 5.73C7.98006 6.42034 7.41978 6.98062 6.72944 6.98062H5.67766C4.98981 6.98062 4.42703 7.5434 4.42703 8.23125V26.9906C4.42703 27.6785 4.98981 28.2412 5.67766 28.2412H16.5581C17.1922 28.2412 17.7262 28.7152 17.8 29.3455C18.0626 31.5779 18.5803 37.4859 15.5601 43.789C13.6053 47.8773 10.989 50.6424 8.89047 52.4108C11.4417 52.5209 15.2011 52.1457 18.7254 49.722C19.2944 49.3305 20.0736 49.4744 20.465 50.0434C20.8565 50.6124 20.7127 51.3916 20.1437 51.783C13.7117 56.2052 6.6119 54.7433 5.4063 54.4744C4.9173 54.3656 4.53962 53.9766 4.44833 53.4838C4.35578 52.9911 4.56711 52.4909 4.98357 52.2132C6.76571 51.0251 10.6902 48.1749 13.304 42.7085C15.6327 37.8498 15.6264 33.2475 15.4263 30.7425H5.67766C3.61413 30.7425 1.92578 29.0542 1.92578 26.9906V8.23125C1.92578 6.16771 3.61413 4.47937 5.67766 4.47937H6.72944ZM25.5938 45.6975C25.2637 46.304 24.5033 46.5266 23.8968 46.1965C23.2915 45.865 23.0676 45.1047 23.399 44.4994C26.0015 39.7345 25.6877 34.747 25.6877 34.4944V8.23125C25.6877 7.5434 25.1249 6.98062 24.437 6.98062H10.5138C9.82348 6.98062 9.2632 6.42034 9.2632 5.73C9.2632 5.03965 9.82348 4.47937 10.5138 4.47937H24.437C26.5006 4.47937 28.1889 6.16771 28.1889 8.23125V34.4944C28.1889 34.777 28.5103 40.3586 25.5938 45.6975Z" fill="#097ED3"/>
<path d="M22.8876 49.6035C23.5778 49.6035 24.1374 49.0439 24.1374 48.3536C24.1374 47.6633 23.5778 47.1038 22.8876 47.1038C22.1973 47.1038 21.6377 47.6633 21.6377 48.3536C21.6377 49.0439 22.1973 49.6035 22.8876 49.6035Z" fill="#097ED3"/>
<path fill-rule="evenodd" clip-rule="evenodd" d="M56.9536 9.51565C56.9536 10.206 56.3933 10.7663 55.7029 10.7663C55.0126 10.7663 54.4523 10.206 54.4523 9.51565V8.23125C54.4523 7.5434 53.8895 6.98062 53.2017 6.98062H34.4423C33.7545 6.98062 33.1917 7.5434 33.1917 8.23125V26.9906C33.1917 27.6785 33.7545 28.2412 34.4423 28.2412H45.3228C45.9568 28.2412 46.4908 28.7152 46.5646 29.3455C46.8272 31.5779 47.345 37.4859 44.3247 43.789C42.37 47.8773 39.7537 50.6424 37.6551 52.4108C40.2064 52.5209 43.9646 52.1457 47.4888 49.7232C55.0901 44.4594 54.4523 34.8458 54.4523 34.4944V13.3C54.4523 12.6097 55.0126 12.0494 55.7029 12.0494C56.3933 12.0494 56.9536 12.6097 56.9536 13.3V34.4944C56.9536 34.8933 57.5663 45.7888 48.9107 51.7805L48.9083 51.783C42.4763 56.2052 35.3765 54.7433 34.1709 54.4744C33.6819 54.3656 33.3043 53.9766 33.213 53.4838C33.1204 52.9911 33.3318 52.4909 33.7482 52.2132C35.5304 51.0251 39.4548 48.1749 42.0686 42.7085C44.3973 37.8498 44.391 33.2475 44.1909 30.7425H34.4423C32.3788 30.7425 30.6904 29.0542 30.6904 26.9906V8.23125C30.6904 6.16771 32.3788 4.47937 34.4423 4.47937H53.2017C55.2652 4.47937 56.9536 6.16771 56.9536 8.23125V9.51565Z" fill="#097ED3"/>
</svg>
