<svg width="46" height="46" viewBox="0 0 46 46" fill="none" xmlns="http://www.w3.org/2000/svg">
<path d="M23.0076 34.3557C23.7701 34.3557 24.5014 34.6586 25.0406 35.1977C25.5797 35.7369 25.8826 36.4682 25.8826 37.2307C25.8826 37.9932 25.5797 38.7244 25.0406 39.2636C24.5014 39.8028 23.7701 40.1057 23.0076 40.1057H22.9924C22.2299 40.1057 21.4986 39.8028 20.9594 39.2636C20.4203 38.7244 20.1174 37.9932 20.1174 37.2307C20.1174 36.4682 20.4203 35.7369 20.9594 35.1977C21.4986 34.6586 22.2299 34.3557 22.9924 34.3557H23.0076ZM4.9079 19.1386C9.70623 14.3402 16.2142 11.6446 23 11.6446C29.7859 11.6446 36.2938 14.3402 41.0921 19.1386C41.632 19.6743 42.3622 19.9743 43.1227 19.9728C43.8833 19.9713 44.6123 19.6685 45.1501 19.1307C45.688 18.5929 45.9907 17.8639 45.9922 17.1033C45.9936 16.3427 45.6936 15.6125 45.1579 15.0727C42.2497 12.16 38.7957 9.84927 34.9937 8.27269C31.1916 6.69611 27.116 5.88461 23 5.88461C18.884 5.88461 14.8084 6.69611 11.0063 8.27269C7.20425 9.84927 3.75032 12.16 0.842107 15.0727C0.306358 15.6125 0.00636509 16.3427 0.00781775 17.1033C0.00927041 17.8639 0.31205 18.5929 0.849858 19.1307C1.38767 19.6685 2.11668 19.9713 2.87726 19.9728C3.63784 19.9743 4.36801 19.6743 4.9079 19.1386ZM36.809 26.2966C37.3776 26.2966 37.9335 26.128 38.4063 25.8121C38.8791 25.4962 39.2476 25.0472 39.4652 24.5218C39.6828 23.9965 39.7398 23.4184 39.6288 22.8607C39.5179 22.303 39.2441 21.7907 38.842 21.3886C34.6404 17.1871 28.9418 14.8267 22.9999 14.8267C17.058 14.8267 11.3595 17.1871 7.15785 21.3886C6.61868 21.9278 6.31578 22.659 6.31578 23.4215C6.31578 24.184 6.61868 24.9153 7.15785 25.4545C7.69702 25.9936 8.42829 26.2965 9.19079 26.2965C9.95329 26.2965 10.6846 25.9936 11.2237 25.4545C14.347 22.3313 18.583 20.5767 22.9999 20.5767C27.4168 20.5767 31.6528 22.3313 34.7761 25.4545C35.0428 25.7218 35.3596 25.9339 35.7085 26.0784C36.0574 26.2229 36.4314 26.2971 36.809 26.2966ZM30.493 32.6126C31.0616 32.6126 31.6174 32.444 32.0902 32.128C32.563 31.8121 32.9315 31.3631 33.1491 30.8378C33.3666 30.3125 33.4236 29.7344 33.3127 29.1767C33.2017 28.619 32.9279 28.1068 32.5259 27.7047C31.2749 26.4537 29.7898 25.4614 28.1553 24.7844C26.5208 24.1073 24.769 23.7589 22.9998 23.7589C21.2307 23.7589 19.4788 24.1073 17.8444 24.7844C16.2099 25.4614 14.7248 26.4537 13.4738 27.7047C13.2068 27.9717 12.995 28.2886 12.8506 28.6374C12.7061 28.9862 12.6317 29.3601 12.6317 29.7376C12.6317 30.5001 12.9346 31.2314 13.4738 31.7706C14.0129 32.3097 14.7442 32.6127 15.5067 32.6127C16.2692 32.6127 17.0005 32.3097 17.5397 31.7706C18.2567 31.0535 19.1079 30.4847 20.0448 30.0967C20.9817 29.7086 21.9858 29.5089 22.9998 29.5089C24.0139 29.5089 25.018 29.7086 25.9549 30.0967C26.8917 30.4847 27.743 31.0535 28.46 31.7706C28.7267 32.0379 29.0436 32.2499 29.3925 32.3944C29.7413 32.5389 30.1153 32.613 30.493 32.6125V32.6126Z" fill="#097ED3"/>
</svg>
