<svg width="46" height="47" viewBox="0 0 46 47" fill="none" xmlns="http://www.w3.org/2000/svg">
<g clip-path="url(#clip0_2088_4078)">
<path d="M41.3992 8.54999C43.3045 8.54999 44.8492 7.00566 44.8492 5.09999C44.8492 3.19474 43.3045 1.64999 41.3992 1.64999C39.494 1.64999 37.9492 3.19474 37.9492 5.09999C37.9513 7.00482 39.4948 8.54789 41.3992 8.54999ZM41.3992 3.95027C42.0343 3.95027 42.5494 4.46491 42.5494 5.09999C42.5494 5.73508 42.0343 6.25013 41.3992 6.25013C40.7641 6.25013 40.2491 5.73508 40.2491 5.09999C40.2495 4.46533 40.7641 3.9507 41.3992 3.95027Z" fill="#097ED3"/>
<path d="M13.7996 20.0501H11.4997C10.8647 20.0501 10.3496 20.5652 10.3496 21.2003C10.3496 21.8353 10.8647 22.35 11.4997 22.35H13.7996C15.704 22.3479 17.2475 20.8048 17.2496 18.9V9.70012C17.2475 7.79572 15.704 6.25223 13.7996 6.25012H11.4997C10.8647 6.25012 10.3496 6.76518 10.3496 7.40026C10.3496 8.03535 10.8647 8.54998 11.4997 8.54998H13.7996C14.4347 8.5504 14.9493 9.06504 14.9497 9.70012V13.1501H11.4997C10.8647 13.1501 10.3496 13.6652 10.3496 14.3003C10.3496 14.9353 10.8647 15.45 11.4997 15.45H14.9497V18.9C14.9493 19.5351 14.4347 20.0497 13.7996 20.0501Z" fill="#097ED3"/>
<path d="M23.0008 22.35C24.9056 22.3479 26.4487 20.8048 26.4508 18.9V14.3003C26.4487 12.3954 24.9056 10.8524 23.0008 10.8503C22.6083 10.8541 22.2191 10.9256 21.8511 11.0621V9.70012C21.8515 9.06504 22.3661 8.5504 23.0008 8.54998H25.3011C25.9361 8.54998 26.4508 8.03535 26.4508 7.40026C26.4508 6.76518 25.9361 6.25012 25.3011 6.25012H23.0008C21.0964 6.25223 19.5529 7.79572 19.5508 9.70012V18.9C19.5529 20.8048 21.0964 22.3479 23.0008 22.35ZM21.8511 14.3003C21.8511 13.6652 22.3657 13.1501 23.0008 13.1501C23.6359 13.1501 24.1509 13.6652 24.1509 14.3003V18.9C24.1509 19.5351 23.6359 20.0501 23.0008 20.0501C22.3657 20.0501 21.8511 19.5351 21.8511 18.9V14.3003Z" fill="#097ED3"/>
<path d="M32.2 22.35C34.1044 22.3479 35.6479 20.8048 35.65 18.9V9.70012C35.65 7.79487 34.1052 6.25012 32.2 6.25012C30.2943 6.25012 28.75 7.79487 28.75 9.70012V18.9C28.7521 20.8048 30.2952 22.3479 32.2 22.35ZM31.0499 9.70012C31.0499 9.06504 31.5649 8.54998 32.2 8.54998C32.8351 8.54998 33.3497 9.06504 33.3497 9.70012V18.9C33.3497 19.5351 32.8351 20.0501 32.2 20.0501C31.5649 20.0501 31.0499 19.5351 31.0499 18.9V9.70012Z" fill="#097ED3"/>
<path d="M39.5789 15.5949C39.2778 15.8109 39.0992 16.1588 39.0996 16.5294V22.7669C42.2047 22.139 45.1607 20.6452 45.9301 19.4934C45.5974 17.8892 43.8231 16.5264 40.6191 15.4399C40.2674 15.3224 39.8808 15.3801 39.5789 15.5949Z" fill="#097ED3"/>
<path d="M6.90082 22.7669V16.5294C6.90082 16.1588 6.72184 15.8105 6.42072 15.5948C6.1196 15.3788 5.73257 15.3211 5.38134 15.4399C2.17687 16.5268 0.403015 17.8897 0.0703125 19.4934C0.83974 20.6452 3.79574 22.139 6.90082 22.7669Z" fill="#097ED3"/>
<path d="M23.5751 26.9421V26.9371H22.425V26.9421C9.39906 26.8566 2.05391 23.9436 0 22.35V38.4503C0 42.9805 11.5709 45.3503 22.9999 45.3503C34.4292 45.3503 46.0001 42.9805 46.0001 38.4503V22.35C43.9462 23.9436 36.6011 26.8566 23.5751 26.9421Z" fill="#097ED3"/>
</g>
<defs>
<clipPath id="clip0_2088_4078">
<rect width="46" height="46" fill="white" transform="translate(0 0.500122)"/>
</clipPath>
</defs>
</svg>
