<svg width="47" height="46" viewBox="0 0 47 46" fill="none" xmlns="http://www.w3.org/2000/svg">
<path d="M23.5 30.1876C27.4675 30.1876 30.6875 26.9676 30.6875 23.0001V11.5001C30.6875 7.53262 27.4675 4.31262 23.5 4.31262C19.5325 4.31262 16.3125 7.53262 16.3125 11.5001V23.0001C16.3125 26.9676 19.5325 30.1876 23.5 30.1876Z" fill="#097ED3"/>
<path d="M30.9944 29.7085C29.0777 31.836 26.3561 33.0626 23.5002 33.0626C20.6444 33.0626 17.9036 31.836 16.0061 29.7085C15.4694 29.1143 14.5686 29.076 13.9744 29.5935C13.3802 30.1301 13.3419 31.031 13.8594 31.6251C15.9869 34.0018 18.9194 35.4968 22.0627 35.861V38.8126H19.6669C18.8811 38.8126 18.2294 39.4643 18.2294 40.2501C18.2294 41.036 18.8811 41.6876 19.6669 41.6876H27.3336C28.1194 41.6876 28.7711 41.036 28.7711 40.2501C28.7711 39.4643 28.1194 38.8126 27.3336 38.8126H24.9377V35.861C28.0811 35.516 31.0136 34.021 33.1411 31.6251C33.6777 31.031 33.6202 30.1301 33.0261 29.5935C32.4319 29.0568 31.5311 29.1143 30.9944 29.7085Z" fill="#097ED3"/>
<path d="M38.4498 8.4718C37.8365 7.97347 36.9357 8.0693 36.4373 8.68263C35.939 9.29597 36.0348 10.1968 36.6482 10.6951C38.354 12.0751 39.3123 14.1068 39.3123 16.2918C39.3123 18.6876 38.124 20.9301 36.1115 22.2718C35.4598 22.7126 35.2682 23.6135 35.709 24.2651C35.9773 24.6868 36.4373 24.8976 36.8973 24.8976C37.1657 24.8976 37.4532 24.821 37.7023 24.6485C40.5007 22.7701 42.1682 19.646 42.1682 16.2726C42.1682 13.2251 40.8074 10.3693 38.4307 8.45263L38.4498 8.4718Z" fill="#097ED3"/>
<path d="M35.1915 12.5543C34.7124 11.9218 33.8115 11.7876 33.179 12.2668C32.5465 12.7459 32.4124 13.6468 32.8915 14.2793C33.3324 14.8543 33.5624 15.5634 33.5624 16.2918C33.5624 17.0201 33.3324 17.7293 32.8915 18.3043C32.4124 18.9368 32.5465 19.8376 33.179 20.3168C33.4474 20.5084 33.7349 20.6043 34.0415 20.6043C34.4824 20.6043 34.904 20.4126 35.1915 20.0293C36.0157 18.9368 36.4374 17.6526 36.4374 16.2918C36.4374 14.9309 36.0157 13.6276 35.1915 12.5543Z" fill="#097ED3"/>
<path d="M7.6875 16.2918C7.6875 14.1068 8.665 12.0751 10.3517 10.6951C10.965 10.1968 11.0608 9.29597 10.5625 8.68263C10.0642 8.0693 9.16333 7.97347 8.55 8.4718C6.17333 10.3885 4.8125 13.2443 4.8125 16.2918C4.8125 19.6651 6.48 22.7893 9.27833 24.6676C9.5275 24.8401 9.79583 24.9168 10.0833 24.9168C10.5433 24.9168 11.0033 24.6868 11.2717 24.2843C11.7125 23.6326 11.54 22.7318 10.8692 22.291C8.87583 20.9493 7.66833 18.726 7.66833 16.311L7.6875 16.2918Z" fill="#097ED3"/>
<path d="M14.1083 18.3043C13.6675 17.7293 13.4375 17.0201 13.4375 16.2918C13.4375 15.5634 13.6675 14.8543 14.1083 14.2793C14.5875 13.6468 14.4533 12.7459 13.8208 12.2668C13.1883 11.7876 12.2875 11.9218 11.8083 12.5543C10.9842 13.6468 10.5625 14.9309 10.5625 16.2918C10.5625 17.6526 10.9842 18.9559 11.8083 20.0293C12.0958 20.4126 12.5175 20.6043 12.9583 20.6043C13.265 20.6043 13.5525 20.5084 13.8208 20.3168C14.4533 19.8376 14.5875 18.9368 14.1083 18.3043Z" fill="#097ED3"/>
</svg>
