<svg width="47" height="47" viewBox="0 0 47 47" fill="none" xmlns="http://www.w3.org/2000/svg">
<g clip-path="url(#clip0_2088_4091)">
<path d="M35.563 28.9098L33.9885 28.0007L38.2076 26.8702L37.5103 24.2679L30.6888 26.0956L27.4714 24.238C27.5158 23.9985 27.5402 23.7521 27.5402 23.5C27.5402 23.248 27.5159 23.0014 27.4714 22.762L30.6888 20.9044L37.5103 22.7322L38.2076 20.1299L33.9885 18.9994L35.563 18.0903L42.3196 17.6847L43.3146 12.0594L37.9455 10.1085L34.2159 15.7571L32.6414 16.6662L33.772 12.447L31.1696 11.7498L29.3419 18.5713L26.1225 20.4299C25.7494 20.1106 25.318 19.8579 24.8461 19.6906V15.9757L29.8397 10.982L27.9347 9.07698L24.846 12.1656V10.3474L27.8638 4.31192L23.4991 0.500122L19.1343 4.3121L22.152 10.3476V12.1658L19.0633 9.07716L17.1583 10.9822L22.1519 15.9759V19.6908C21.6801 19.8581 21.2487 20.1108 20.8756 20.4301L17.6562 18.5714L15.8284 11.75L13.2261 12.4472L14.3566 16.6664L12.7821 15.7573L9.05258 10.1086L3.68359 12.0596L4.67853 17.6849L11.4352 18.0905L13.0097 18.9995L8.79053 20.1301L9.48786 22.7324L16.3093 20.9046L19.5267 22.7622C19.4823 23.0017 19.4579 23.2481 19.4579 23.5002C19.4579 23.7523 19.4823 23.9988 19.5267 24.2382L16.3093 26.0958L9.48786 24.268L8.79053 26.8704L13.0097 28.0009L11.4352 28.91L4.67853 29.3153L3.68359 34.9406L9.05267 36.8916L12.7822 31.243L14.3568 30.3339L13.2263 34.553L15.8286 35.2504L17.6564 28.4289L20.8757 26.5702C21.2489 26.8896 21.6803 27.1423 22.1521 27.3096V31.0245L17.1585 36.0181L19.0635 37.9231L22.1522 34.8344V36.6526L19.1345 42.6881L23.4993 46.5L27.8641 42.6881L24.8463 36.6526V34.8344L27.935 37.9231L29.84 36.0181L24.8464 31.0245V27.3096C25.3182 27.1423 25.7496 26.8896 26.1228 26.5702L29.3421 28.4289L31.1699 35.2504L33.7722 34.553L32.6417 30.3339L34.2163 31.243L37.9458 36.8916L43.3149 34.9406L42.32 29.3153L35.563 28.9098Z" fill="#097ED3"/>
</g>
<defs>
<clipPath id="clip0_2088_4091">
<rect width="46" height="46" fill="white" transform="translate(0.5 0.500122)"/>
</clipPath>
</defs>
</svg>
