<svg width="78" height="77" viewBox="0 0 78 77" fill="none" xmlns="http://www.w3.org/2000/svg">
<path d="M5.59738 72.4493H72.4026C72.7089 72.4493 73.0027 72.3276 73.2193 72.111C73.4359 71.8944 73.5576 71.6006 73.5576 71.2943V25.0943C73.5576 24.788 73.4359 24.4942 73.2193 24.2776C73.0027 24.061 72.7089 23.9393 72.4026 23.9393H51.32C51.0137 23.9393 50.7199 24.061 50.5033 24.2776C50.2867 24.4942 50.165 24.788 50.165 25.0943V38.2998L42.9424 41.2951L41.4024 17.0632C41.3829 16.7697 41.2529 16.4945 41.0386 16.293C40.8243 16.0916 40.5415 15.9788 40.2474 15.9775H31.916C31.6221 15.9771 31.3392 16.0895 31.1257 16.2915C30.9123 16.4935 30.7845 16.7697 30.7687 17.0632L29.4597 38.1766L23.1996 41.3644L21.6981 17.0632C21.6784 16.7657 21.5451 16.4871 21.3259 16.2851C21.1066 16.083 20.8181 15.9729 20.52 15.9775H12.1809C11.8867 15.9788 11.604 16.0916 11.3897 16.293C11.1754 16.4945 11.0454 16.7697 11.0259 17.0632L9.10858 48.1096C9.09937 48.2479 9.11769 48.3866 9.16248 48.5177L5.07378 50.6044C4.88405 50.6999 4.72456 50.8463 4.61308 51.0271C4.5016 51.2079 4.44251 51.4161 4.44238 51.6285V71.2943C4.44238 71.6006 4.56407 71.8944 4.78067 72.111C4.99728 72.3276 5.29106 72.4493 5.59738 72.4493ZM59.7438 70.1393V61.2535H63.9711V70.1393H59.7438ZM52.4673 26.2493H71.2476V70.1393H66.2811V60.1293C66.2811 59.823 66.1594 59.5292 65.9428 59.3126C65.7262 59.096 65.4324 58.9743 65.1261 58.9743H58.5888C58.2825 58.9743 57.9887 59.096 57.7721 59.3126C57.5555 59.5292 57.4338 59.823 57.4338 60.1293V70.1393H52.4673V26.2493ZM31.4001 43.5435C31.4316 43.4539 31.4523 43.3608 31.4617 43.2663L32.1778 31.57H40.0164L40.6786 42.2114L31.4386 46.0614L31.4001 43.5435ZM39.1925 18.2875L39.8778 29.26H32.3241L33.0017 18.2721L39.1925 18.2875ZM19.4574 18.2875L20.135 29.26H12.589L13.2666 18.2721L19.4574 18.2875ZM12.4427 31.57H20.2813L20.9589 42.4963L11.4725 47.3396L12.4427 31.57ZM22.6683 44.2288L29.0824 40.9563V47.8016C29.0834 47.9917 29.1311 48.1787 29.2211 48.3461C29.3112 48.5135 29.441 48.6563 29.599 48.762C29.7571 48.8676 29.9387 48.9329 30.1278 48.952C30.317 48.9712 30.5079 48.9437 30.684 48.8719L50.1573 40.81V70.147H6.75238V65.681H29.8524C30.1587 65.681 30.4525 65.5593 30.6691 65.3427C30.8857 65.1261 31.0074 64.8323 31.0074 64.526V57.6884C31.0074 57.3821 30.8857 57.0883 30.6691 56.8717C30.4525 56.6551 30.1587 56.5334 29.8524 56.5334H6.75238V52.36L22.6683 44.2288ZM6.75238 58.8588H16.5468V63.3787H6.75238V58.8588ZM28.6589 58.8588V63.3787H18.8568V58.8434L28.6589 58.8588ZM55.4857 34.65C55.4857 34.3437 55.6074 34.0499 55.824 33.8333C56.0406 33.6167 56.3344 33.495 56.6407 33.495H67.0742C67.3805 33.495 67.6743 33.6167 67.8909 33.8333C68.1075 34.0499 68.2292 34.3437 68.2292 34.65C68.2292 34.9563 68.1075 35.2501 67.8909 35.4667C67.6743 35.6833 67.3805 35.805 67.0742 35.805H56.6407C56.3344 35.805 56.0406 35.6833 55.824 35.4667C55.6074 35.2501 55.4857 34.9563 55.4857 34.65ZM55.4857 42.9121C55.4857 42.6058 55.6074 42.312 55.824 42.0954C56.0406 41.8788 56.3344 41.7571 56.6407 41.7571H67.0742C67.3805 41.7571 67.6743 41.8788 67.8909 42.0954C68.1075 42.312 68.2292 42.6058 68.2292 42.9121C68.2292 43.2184 68.1075 43.5122 67.8909 43.7288C67.6743 43.9454 67.3805 44.0671 67.0742 44.0671H56.6407C56.3357 44.0671 56.0431 43.9465 55.8267 43.7316C55.6103 43.5166 55.4877 43.2248 55.4857 42.9198V42.9121ZM55.4857 51.6208C55.4857 51.3145 55.6074 51.0207 55.824 50.8041C56.0406 50.5875 56.3344 50.4658 56.6407 50.4658H67.0742C67.3805 50.4658 67.6743 50.5875 67.8909 50.8041C68.1075 51.0207 68.2292 51.3145 68.2292 51.6208C68.2292 51.9271 68.1075 52.2209 67.8909 52.4375C67.6743 52.6541 67.3805 52.7758 67.0742 52.7758H56.6407C56.3357 52.7758 56.0431 52.6552 55.8267 52.4403C55.6103 52.2253 55.4877 51.9335 55.4857 51.6285V51.6208ZM35.0884 57.6884C35.0884 57.3821 35.2101 57.0883 35.4267 56.8717C35.6433 56.6551 35.9371 56.5334 36.2434 56.5334H44.8828C45.1891 56.5334 45.4829 56.6551 45.6995 56.8717C45.9161 57.0883 46.0378 57.3821 46.0378 57.6884C46.0378 57.9947 45.9161 58.2885 45.6995 58.5051C45.4829 58.7217 45.1891 58.8434 44.8828 58.8434H36.2434C35.9371 58.8434 35.6433 58.7217 35.4267 58.5051C35.2101 58.2885 35.0884 57.9947 35.0884 57.6884ZM35.0884 64.5183C35.0884 64.212 35.2101 63.9182 35.4267 63.7016C35.6433 63.485 35.9371 63.3633 36.2434 63.3633H44.8828C45.1891 63.3633 45.4829 63.485 45.6995 63.7016C45.9161 63.9182 46.0378 64.212 46.0378 64.5183C46.0378 64.8247 45.9161 65.1184 45.6995 65.335C45.4829 65.5516 45.1891 65.6733 44.8828 65.6733H36.2434C35.9371 65.6733 35.6433 65.5516 35.4267 65.335C35.2101 65.1184 35.0884 64.8247 35.0884 64.5183ZM33.8795 12.705C33.8815 10.543 34.7413 8.4701 36.2701 6.94131C37.7989 5.41253 39.8718 4.55276 42.0338 4.55072H54.2999C55.5344 4.55072 56.7183 5.04112 57.5912 5.91404C58.4641 6.78695 58.9545 7.97088 58.9545 9.20537C58.9545 10.4399 58.4641 11.6238 57.5912 12.4967C56.7183 13.3696 55.5344 13.86 54.2999 13.86H50.3652C50.1153 14.7208 49.5929 15.4773 48.8765 16.016C48.1601 16.5547 47.2883 16.8465 46.392 16.8476H45.0368C44.7305 16.8476 44.4367 16.7259 44.2201 16.5093C44.0035 16.2927 43.8818 15.9989 43.8818 15.6926C43.8818 15.3863 44.0035 15.0925 44.2201 14.8759C44.4367 14.6593 44.7305 14.5376 45.0368 14.5376H46.392C46.6342 14.5407 46.8746 14.4955 47.0992 14.4047C47.3238 14.3139 47.5281 14.1792 47.7001 14.0087C47.8721 13.8381 48.0084 13.6349 48.1011 13.4111C48.1938 13.1873 48.241 12.9473 48.24 12.705C48.242 12.3993 48.3643 12.1067 48.5805 11.8905C48.7967 11.6744 49.0893 11.552 49.395 11.55H54.323C54.9448 11.55 55.5412 11.303 55.9809 10.8633C56.4206 10.4236 56.6676 9.82721 56.6676 9.20537C56.6676 8.58353 56.4206 7.98716 55.9809 7.54745C55.5412 7.10775 54.9448 6.86072 54.323 6.86072H42.0338C40.4844 6.86276 38.9991 7.47915 37.9035 8.57473C36.8079 9.6703 36.1915 11.1556 36.1895 12.705C36.1895 13.0113 36.0678 13.3051 35.8512 13.5217C35.6346 13.7383 35.3408 13.86 35.0345 13.86C34.7282 13.86 34.4344 13.7383 34.2178 13.5217C34.0012 13.3051 33.8795 13.0113 33.8795 12.705ZM4.53478 8.65482C4.53478 7.56635 4.96718 6.52245 5.73685 5.75278C6.50651 4.98312 7.55041 4.55072 8.63888 4.55072H23.4691C24.5576 4.55072 25.6015 4.98312 26.3711 5.75278C27.1408 6.52245 27.5732 7.56635 27.5732 8.65482C27.5732 9.7433 27.1408 10.7872 26.3711 11.5569C25.6015 12.3265 24.5576 12.7589 23.4691 12.7589H20.7818C20.6552 12.7589 20.5337 12.8092 20.4442 12.8987C20.3547 12.9883 20.3044 13.1097 20.3044 13.2363C20.3044 13.5426 20.1827 13.8364 19.9661 14.053C19.7495 14.2696 19.4557 14.3913 19.1494 14.3913C18.8431 14.3913 18.5493 14.2696 18.3327 14.053C18.1161 13.8364 17.9944 13.5426 17.9944 13.2363C17.9944 12.4971 18.2881 11.7881 18.8108 11.2653C19.3335 10.7426 20.0425 10.4489 20.7818 10.4489H23.4691C23.9449 10.4489 24.4012 10.2599 24.7377 9.92344C25.0742 9.58698 25.2632 9.13065 25.2632 8.65482C25.2632 8.179 25.0742 7.72266 24.7377 7.3862C24.4012 7.04974 23.9449 6.86072 23.4691 6.86072H8.63888C8.16306 6.86072 7.70672 7.04974 7.37026 7.3862C7.0338 7.72266 6.84478 8.179 6.84478 8.65482C6.84478 9.13065 7.0338 9.58698 7.37026 9.92344C7.70672 10.2599 8.16306 10.4489 8.63888 10.4489H9.97098C11.1647 10.4479 12.3303 10.8105 13.3128 11.4884L14.4755 12.2584C14.6799 12.3976 14.8343 12.5987 14.9159 12.8322C14.9975 13.0657 15.002 13.3192 14.9287 13.5554C14.8554 13.7917 14.7083 13.9981 14.5088 14.1445C14.3094 14.2908 14.0683 14.3692 13.821 14.3682C13.5879 14.3673 13.3602 14.2976 13.1665 14.168L12.0038 13.398C11.4052 12.9877 10.6967 12.7676 9.97098 12.7666H8.63888C8.09928 12.7666 7.56497 12.6602 7.06653 12.4535C6.5681 12.2467 6.11532 11.9438 5.73412 11.5618C5.35292 11.1799 5.05077 10.7266 4.84498 10.2278C4.63918 9.72894 4.53377 9.19443 4.53478 8.65482Z" fill="#097ED3"/>
</svg>
