<svg width="78" height="77" viewBox="0 0 78 77" fill="none" xmlns="http://www.w3.org/2000/svg">
<g clip-path="url(#clip0_2017_38)">
<path d="M75.8958 73.7917H74.1312V13.475C74.1312 12.8333 73.65 12.1917 73.1687 12.0312L57.7687 6.25625V1.60417C57.7687 0.641667 57.1271 0 56.1646 0H5.79375C4.83125 0 4.18958 0.641667 4.18958 1.60417V73.7917H2.10417C1.14167 73.7917 0.5 74.4333 0.5 75.3958C0.5 76.3583 1.14167 77 2.10417 77H75.8958C76.8583 77 77.5 76.3583 77.5 75.3958C77.5 74.4333 76.8583 73.7917 75.8958 73.7917ZM25.3646 73.7917V61.9208C25.3646 58.8729 27.9312 56.3062 30.9792 56.3062C34.0271 56.3062 36.5938 58.8729 36.5938 61.9208V73.7917H25.3646ZM39.6417 73.7917V61.9208C39.6417 57.1083 35.6312 53.0979 30.8187 53.0979C26.0062 53.0979 21.9958 57.1083 21.9958 61.9208V73.7917H7.39792V3.20833H54.4V73.7917H39.6417ZM57.6083 73.7917V9.46458L70.9229 14.4375V73.7917H57.6083Z" fill="#097ED3"/>
<path d="M25.2041 8.02081C24.2416 8.02081 23.6 8.66248 23.6 9.62498V12.8333C23.6 13.7958 24.2416 14.4375 25.2041 14.4375C26.1666 14.4375 26.8083 13.7958 26.8083 12.8333V9.62498C26.8083 8.66248 26.1666 8.02081 25.2041 8.02081Z" fill="#097ED3"/>
<path d="M36.5937 8.02081C35.6312 8.02081 34.9896 8.66248 34.9896 9.62498V12.8333C34.9896 13.7958 35.6312 14.4375 36.5937 14.4375C37.5562 14.4375 38.1979 13.7958 38.1979 12.8333V9.62498C38.1979 8.66248 37.5562 8.02081 36.5937 8.02081Z" fill="#097ED3"/>
<path d="M13.8146 8.02081C12.8521 8.02081 12.2104 8.66248 12.2104 9.62498V12.8333C12.2104 13.7958 12.8521 14.4375 13.8146 14.4375C14.7771 14.4375 15.4187 13.7958 15.4187 12.8333V9.62498C15.4187 8.66248 14.7771 8.02081 13.8146 8.02081Z" fill="#097ED3"/>
<path d="M47.9833 8.02081C47.0208 8.02081 46.3792 8.66248 46.3792 9.62498V12.8333C46.3792 13.7958 47.0208 14.4375 47.9833 14.4375C48.9458 14.4375 49.5875 13.7958 49.5875 12.8333V9.62498C49.5875 8.66248 48.7854 8.02081 47.9833 8.02081Z" fill="#097ED3"/>
<path d="M25.2041 18.2875C24.2416 18.2875 23.6 18.9291 23.6 19.8916V23.1C23.6 24.0625 24.2416 24.7041 25.2041 24.7041C26.1666 24.7041 26.8083 24.0625 26.8083 23.1V19.8916C26.8083 18.9291 26.1666 18.2875 25.2041 18.2875Z" fill="#097ED3"/>
<path d="M36.5937 18.2875C35.6312 18.2875 34.9896 18.9291 34.9896 19.8916V23.1C34.9896 24.0625 35.6312 24.7041 36.5937 24.7041C37.5562 24.7041 38.1979 24.0625 38.1979 23.1V19.8916C38.1979 18.9291 37.5562 18.2875 36.5937 18.2875Z" fill="#097ED3"/>
<path d="M13.8146 18.2875C12.8521 18.2875 12.2104 18.9291 12.2104 19.8916V23.1C12.2104 24.0625 12.8521 24.7041 13.8146 24.7041C14.7771 24.7041 15.4187 24.0625 15.4187 23.1V19.8916C15.4187 18.9291 14.7771 18.2875 13.8146 18.2875Z" fill="#097ED3"/>
<path d="M47.9833 18.2875C47.0208 18.2875 46.3792 18.9291 46.3792 19.8916V23.1C46.3792 24.0625 47.0208 24.7041 47.9833 24.7041C48.9458 24.7041 49.5875 24.0625 49.5875 23.1V19.8916C49.5875 18.9291 48.7854 18.2875 47.9833 18.2875Z" fill="#097ED3"/>
<path d="M25.2041 28.5541C24.2416 28.5541 23.6 29.1958 23.6 30.1583V33.3666C23.6 34.3291 24.2416 34.9708 25.2041 34.9708C26.1666 34.9708 26.8083 34.3291 26.8083 33.3666V30.1583C26.8083 29.1958 26.1666 28.5541 25.2041 28.5541Z" fill="#097ED3"/>
<path d="M36.5937 28.5541C35.6312 28.5541 34.9896 29.1958 34.9896 30.1583V33.3666C34.9896 34.3291 35.6312 34.9708 36.5937 34.9708C37.5562 34.9708 38.1979 34.3291 38.1979 33.3666V30.1583C38.1979 29.1958 37.5562 28.5541 36.5937 28.5541Z" fill="#097ED3"/>
<path d="M13.8146 28.5541C12.8521 28.5541 12.2104 29.1958 12.2104 30.1583V33.3666C12.2104 34.3291 12.8521 34.9708 13.8146 34.9708C14.7771 34.9708 15.4187 34.3291 15.4187 33.3666V30.1583C15.4187 29.1958 14.7771 28.5541 13.8146 28.5541Z" fill="#097ED3"/>
<path d="M47.9833 28.5541C47.0208 28.5541 46.3792 29.1958 46.3792 30.1583V33.3666C46.3792 34.3291 47.0208 34.9708 47.9833 34.9708C48.9458 34.9708 49.5875 34.3291 49.5875 33.3666V30.1583C49.5875 29.1958 48.7854 28.5541 47.9833 28.5541Z" fill="#097ED3"/>
<path d="M25.2041 38.6604C24.2416 38.6604 23.6 39.3021 23.6 40.2646V43.4729C23.6 44.4354 24.2416 45.0771 25.2041 45.0771C26.1666 45.0771 26.8083 44.4354 26.8083 43.4729V40.2646C26.8083 39.4625 26.1666 38.6604 25.2041 38.6604Z" fill="#097ED3"/>
<path d="M36.5937 38.6604C35.6312 38.6604 34.9896 39.3021 34.9896 40.2646V43.4729C34.9896 44.4354 35.6312 45.0771 36.5937 45.0771C37.5562 45.0771 38.1979 44.4354 38.1979 43.4729V40.2646C38.1979 39.4625 37.5562 38.6604 36.5937 38.6604Z" fill="#097ED3"/>
<path d="M13.8146 38.6604C12.8521 38.6604 12.2104 39.3021 12.2104 40.2646V43.4729C12.2104 44.4354 12.8521 45.0771 13.8146 45.0771C14.7771 45.0771 15.4187 44.4354 15.4187 43.4729V40.2646C15.4187 39.4625 14.7771 38.6604 13.8146 38.6604Z" fill="#097ED3"/>
<path d="M47.9833 38.6604C47.0208 38.6604 46.3792 39.3021 46.3792 40.2646V43.4729C46.3792 44.4354 47.0208 45.0771 47.9833 45.0771C48.9458 45.0771 49.5875 44.4354 49.5875 43.4729V40.2646C49.5875 39.4625 48.7854 38.6604 47.9833 38.6604Z" fill="#097ED3"/>
<path d="M13.8146 48.9271C12.8521 48.9271 12.2104 49.5687 12.2104 50.5312V53.7396C12.2104 54.7021 12.8521 55.3437 13.8146 55.3437C14.7771 55.3437 15.4187 54.7021 15.4187 53.7396V50.5312C15.4187 49.5687 14.7771 48.9271 13.8146 48.9271Z" fill="#097ED3"/>
<path d="M47.9833 48.9271C47.0208 48.9271 46.3792 49.5687 46.3792 50.5312V53.7396C46.3792 54.7021 47.0208 55.3437 47.9833 55.3437C48.9458 55.3437 49.5875 54.7021 49.5875 53.7396V50.5312C49.5875 49.5687 48.7854 48.9271 47.9833 48.9271Z" fill="#097ED3"/>
<path d="M13.8146 59.1937C12.8521 59.1937 12.2104 59.8354 12.2104 60.7979V64.0062C12.2104 64.9687 12.8521 65.6104 13.8146 65.6104C14.7771 65.6104 15.4187 64.9687 15.4187 64.0062V60.7979C15.4187 59.8354 14.7771 59.1937 13.8146 59.1937Z" fill="#097ED3"/>
<path d="M47.9833 59.1937C47.0208 59.1937 46.3792 59.8354 46.3792 60.7979V64.0062C46.3792 64.9687 47.0208 65.6104 47.9833 65.6104C48.9458 65.6104 49.5875 64.9687 49.5875 64.0062V60.7979C49.5875 59.8354 48.7854 59.1937 47.9833 59.1937Z" fill="#097ED3"/>
<path d="M64.1854 20.6937C63.2229 20.6937 62.5812 21.3354 62.5812 22.2979V25.5062C62.5812 26.4687 63.2229 27.1104 64.1854 27.1104C65.1479 27.1104 65.7896 26.4687 65.7896 25.5062V22.2979C65.7896 21.4958 65.1479 20.6937 64.1854 20.6937Z" fill="#097ED3"/>
<path d="M64.1854 30.9604C63.2229 30.9604 62.5812 31.6021 62.5812 32.5646V35.7729C62.5812 36.7354 63.2229 37.3771 64.1854 37.3771C65.1479 37.3771 65.7896 36.7354 65.7896 35.7729V32.5646C65.7896 31.7625 65.1479 30.9604 64.1854 30.9604Z" fill="#097ED3"/>
<path d="M64.1854 41.2271C63.2229 41.2271 62.5812 41.8687 62.5812 42.8312V46.0396C62.5812 47.0021 63.2229 47.6437 64.1854 47.6437C65.1479 47.6437 65.7896 47.0021 65.7896 46.0396V42.8312C65.7896 41.8687 65.1479 41.2271 64.1854 41.2271Z" fill="#097ED3"/>
<path d="M64.1854 51.4938C63.2229 51.4938 62.5812 52.1354 62.5812 53.0979V56.3063C62.5812 57.2688 63.2229 57.9104 64.1854 57.9104C65.1479 57.9104 65.7896 57.2688 65.7896 56.3063V53.0979C65.7896 52.1354 65.1479 51.4938 64.1854 51.4938Z" fill="#097ED3"/>
<path d="M64.1854 61.6C63.2229 61.6 62.5812 62.2416 62.5812 63.2041V66.4125C62.5812 67.375 63.2229 68.0166 64.1854 68.0166C65.1479 68.0166 65.7896 67.375 65.7896 66.4125V63.2041C65.7896 62.4021 65.1479 61.6 64.1854 61.6Z" fill="#097ED3"/>
</g>
<defs>
<clipPath id="clip0_2017_38">
<rect width="77" height="77" fill="white" transform="translate(0.5)"/>
</clipPath>
</defs>
</svg>
