<svg width="78" height="77" viewBox="0 0 78 77" fill="none" xmlns="http://www.w3.org/2000/svg">
<g clip-path="url(#clip0_2017_361)">
<path d="M75.7701 12.4572L40.2551 0.21038C39.4411 -0.0680922 38.5576 -0.0680922 37.7436 0.21038L2.23122 12.4572C1.72552 12.6313 1.28683 12.959 0.976444 13.3946C0.666061 13.8301 0.499489 14.3518 0.500001 14.8866V21.8166C0.501354 22.2651 0.620639 22.7054 0.845889 23.0933C1.07114 23.4812 1.39443 23.803 1.78333 24.0265V26.9499C1.78469 27.3985 1.90397 27.8387 2.12922 28.2266C2.35447 28.6145 2.67777 28.9363 3.06667 29.1598V32.0832C3.06802 32.5318 3.18731 32.9721 3.41256 33.36C3.63781 33.7478 3.9611 34.0697 4.35 34.2931V63.24C3.9611 63.4635 3.63781 63.7853 3.41256 64.1732C3.18731 64.5611 3.06802 65.0014 3.06667 65.4499V68.2527C2.3186 68.5172 1.67052 69.0063 1.21108 69.6532C0.751642 70.3001 0.50329 71.0731 0.500001 71.8666V74.4332C0.500001 75.114 0.770417 75.7668 1.25176 76.2482C1.7331 76.7295 2.38595 76.9999 3.06667 76.9999H74.9333C75.6141 76.9999 76.2669 76.7295 76.7482 76.2482C77.2296 75.7668 77.5 75.114 77.5 74.4332V71.8666C77.4967 71.0731 77.2484 70.3001 76.7889 69.6532C76.3295 69.0063 75.6814 68.5172 74.9333 68.2527V65.4499C74.932 65.0014 74.8127 64.5611 74.5874 64.1732C74.3622 63.7853 74.0389 63.4635 73.65 63.24V34.2931C74.0389 34.0697 74.3622 33.7478 74.5874 33.36C74.8127 32.9721 74.932 32.5318 74.9333 32.0832V29.1598C75.3222 28.9363 75.6455 28.6145 75.8708 28.2266C76.096 27.8387 76.2153 27.3985 76.2167 26.9499V24.0265C76.6056 23.803 76.9289 23.4812 77.1541 23.0933C77.3794 22.7054 77.4987 22.2651 77.5 21.8166V14.8866C77.5006 14.3519 77.3342 13.8304 77.0241 13.3949C76.7139 12.9593 76.2755 12.6315 75.7701 12.4572ZM3.06667 14.8866L38.5804 2.63716C38.7154 2.59079 38.8572 2.56694 39 2.56658C39.1423 2.56632 39.2837 2.58974 39.4184 2.63588L74.9333 14.8866V21.8166H3.06667V14.8866ZM73.65 26.9499H4.35V24.3832H73.65V26.9499ZM72.3667 32.0832H64.6667V29.5166H72.3667V32.0832ZM72.3667 68.0166H64.6667V65.4499H72.3667V68.0166ZM49.2667 43.6332C48.592 43.6321 47.9294 43.4537 47.3454 43.1158C46.7613 42.778 46.2763 42.2926 45.939 41.7082L45.9236 41.6877C45.5916 41.1079 45.4168 40.4514 45.4167 39.7832C45.4167 39.4429 45.2815 39.1165 45.0408 38.8758C44.8001 38.6351 44.4737 38.4999 44.1333 38.4999C43.793 38.4999 43.4666 38.6351 43.2259 38.8758C42.9852 39.1165 42.85 39.4429 42.85 39.7832C42.8542 40.2147 42.9019 40.6447 42.9925 41.0666H35.0076C35.0981 40.6447 35.1458 40.2147 35.15 39.7832C35.15 39.4429 35.0148 39.1165 34.7741 38.8758C34.5335 38.6351 34.207 38.4999 33.8667 38.4999C33.5263 38.4999 33.1999 38.6351 32.9592 38.8758C32.7185 39.1165 32.5833 39.4429 32.5833 39.7832C32.5834 40.4518 32.4086 41.1088 32.0764 41.689L32.061 41.7095C31.7228 42.2948 31.2364 42.7808 30.6508 43.1185C30.0652 43.4561 29.401 43.6337 28.725 43.6332C28.049 43.6328 27.385 43.4544 26.7999 43.1159C26.2147 42.7774 25.729 42.2908 25.3916 41.7051C25.0541 41.1194 24.8768 40.4551 24.8776 39.7791C24.8783 39.1031 25.057 38.4392 25.3957 37.8542C25.7344 37.2692 26.2212 36.7836 26.8071 36.4464C27.393 36.1092 28.0573 35.9322 28.7333 35.9332H49.2667C50.2878 35.9332 51.267 36.3389 51.989 37.0609C52.711 37.7829 53.1167 38.7622 53.1167 39.7832C53.1167 40.8043 52.711 41.7836 51.989 42.5056C51.267 43.2276 50.2878 43.6332 49.2667 43.6332ZM30.0167 46.06C31.5531 45.748 32.9224 44.8849 33.8667 43.6332H44.1333C45.0776 44.8849 46.4469 45.748 47.9833 46.06V68.0166H30.0167V46.06ZM50.55 46.0716C52.1095 45.7549 53.4956 44.8701 54.4394 43.5889C55.3832 42.3078 55.8172 40.7216 55.6573 39.1384C55.4974 37.5552 54.7549 36.0878 53.574 35.0213C52.393 33.9547 50.8579 33.365 49.2667 33.3666H28.7333C27.1421 33.365 25.607 33.9547 24.426 35.0213C23.2451 36.0878 22.5026 37.5552 22.3427 39.1384C22.1828 40.7216 22.6168 42.3078 23.5606 43.5889C24.5044 44.8701 25.8906 45.7549 27.45 46.0716V68.0166H15.9V65.4499C15.8986 65.0014 15.7794 64.5611 15.5541 64.1732C15.3289 63.7853 15.0056 63.4635 14.6167 63.24V34.2931C15.0056 34.0697 15.3289 33.7478 15.5541 33.36C15.7794 32.9721 15.8986 32.5318 15.9 32.0832V29.5166H62.1V32.0832C62.1014 32.5318 62.2206 32.9721 62.4459 33.36C62.6711 33.7478 62.9944 34.0697 63.3833 34.2931V63.24C62.9944 63.4635 62.6711 63.7853 62.4459 64.1732C62.2206 64.5611 62.1014 65.0014 62.1 65.4499V68.0166H50.55V46.0716ZM5.63333 65.4499H13.3333V68.0166H5.63333V65.4499ZM5.63333 29.5166H13.3333V32.0832H5.63333V29.5166ZM6.91667 34.6499H12.05V62.8832H6.91667V34.6499ZM71.0833 62.8832H65.95V34.6499H71.0833V62.8832ZM74.9333 74.4332H3.06667V71.8666C3.06667 71.5262 3.20188 71.1998 3.44255 70.9591C3.68322 70.7185 4.00964 70.5832 4.35 70.5832H73.65C73.9904 70.5832 74.3168 70.7185 74.5575 70.9591C74.7981 71.1998 74.9333 71.5262 74.9333 71.8666V74.4332Z" fill="#097ED3"/>
<path d="M65.4688 15.4706L39.4171 6.48722C39.146 6.39374 38.8514 6.39374 38.5804 6.48722L12.5287 15.4706C12.2155 15.588 11.9605 15.823 11.818 16.1256C11.6756 16.4283 11.6569 16.7746 11.766 17.0908C11.875 17.407 12.1033 17.6681 12.402 17.8185C12.7008 17.9689 13.0465 17.9967 13.3654 17.8961L39 9.05774L64.632 17.8961C64.7925 17.9562 64.9634 17.9836 65.1347 17.9766C65.3059 17.9697 65.474 17.9285 65.6291 17.8555C65.7841 17.7825 65.923 17.6792 66.0375 17.5516C66.152 17.4241 66.2398 17.2749 66.2956 17.1129C66.3515 16.9509 66.3744 16.7793 66.3629 16.6083C66.3514 16.4373 66.3058 16.2703 66.2287 16.1173C66.1516 15.9642 66.0447 15.8281 65.9142 15.717C65.7836 15.6059 65.6322 15.5221 65.4688 15.4706Z" fill="#097ED3"/>
<path d="M39 47.4833C38.6596 47.4833 38.3332 47.6185 38.0926 47.8592C37.8519 48.0999 37.7167 48.4263 37.7167 48.7667V62.8833C37.7167 63.2237 37.8519 63.5501 38.0926 63.7908C38.3332 64.0315 38.6596 64.1667 39 64.1667C39.3404 64.1667 39.6668 64.0315 39.9075 63.7908C40.1481 63.5501 40.2833 63.2237 40.2833 62.8833V48.7667C40.2833 48.4263 40.1481 48.0999 39.9075 47.8592C39.6668 47.6185 39.3404 47.4833 39 47.4833Z" fill="#097ED3"/>
<path d="M33.8667 47.4833C33.5263 47.4833 33.1999 47.6185 32.9593 47.8592C32.7186 48.0999 32.5834 48.4263 32.5834 48.7667V62.8833C32.5834 63.2237 32.7186 63.5501 32.9593 63.7908C33.1999 64.0315 33.5263 64.1667 33.8667 64.1667C34.2071 64.1667 34.5335 64.0315 34.7742 63.7908C35.0148 63.5501 35.15 63.2237 35.15 62.8833V48.7667C35.15 48.4263 35.0148 48.0999 34.7742 47.8592C34.5335 47.6185 34.2071 47.4833 33.8667 47.4833Z" fill="#097ED3"/>
<path d="M44.1333 47.4833C43.7929 47.4833 43.4665 47.6185 43.2259 47.8592C42.9852 48.0999 42.85 48.4263 42.85 48.7667V62.8833C42.85 63.2237 42.9852 63.5501 43.2259 63.7908C43.4665 64.0315 43.7929 64.1667 44.1333 64.1667C44.4737 64.1667 44.8001 64.0315 45.0408 63.7908C45.2814 63.5501 45.4166 63.2237 45.4166 62.8833V48.7667C45.4166 48.4263 45.2814 48.0999 45.0408 47.8592C44.8001 47.6185 44.4737 47.4833 44.1333 47.4833Z" fill="#097ED3"/>
</g>
<defs>
<clipPath id="clip0_2017_361">
<rect width="77" height="77" fill="white" transform="translate(0.5)"/>
</clipPath>
</defs>
</svg>
