<svg width="78" height="77" viewBox="0 0 78 77" fill="none" xmlns="http://www.w3.org/2000/svg">
<g clip-path="url(#clip0_2017_340)">
<path d="M28.4125 35.7569C28.6531 35.9975 28.9539 36.1178 29.2667 36.1178C29.5796 36.1178 29.8803 35.9975 30.1089 35.7689L30.9631 34.9267L32.6475 36.6472C32.8881 36.8878 33.1889 37.0081 33.5017 37.0081C33.8146 37.0081 34.1153 36.8878 34.3439 36.6592C34.8131 36.19 34.8252 35.432 34.356 34.9628L32.6716 33.2423L33.5258 32.4001C33.995 31.9309 34.007 31.173 33.5378 30.7037C33.0686 30.2345 32.3106 30.2225 31.8414 30.6917L30.9872 31.5339L29.3028 29.8134L30.157 28.9712C30.6263 28.502 30.6383 27.744 30.1691 27.2748C29.6999 26.8056 28.9419 26.7936 28.4727 27.2628L27.6185 28.105L25.9341 26.3845L26.7883 25.5423C27.2575 25.0731 27.2696 24.3151 26.8003 23.8459C26.3311 23.3767 25.5731 23.3647 25.1039 23.8339L24.2497 24.6761L22.5653 22.9556L23.4195 22.1134C23.8888 21.6442 23.9008 20.8862 23.4316 20.417C22.9624 19.9478 22.2044 19.9358 21.7352 20.405L20.881 21.2472L19.1966 19.5267L20.0508 18.6845C20.52 18.2153 20.5321 17.4573 20.0628 16.9881C19.5936 16.5069 18.8356 16.5069 18.3664 16.9761L17.5122 17.8183L15.8278 16.0978C15.3586 15.6286 14.6006 15.6165 14.1314 16.0858C13.6622 16.555 13.6502 17.313 14.1194 17.7822L15.8038 19.5026L14.9496 20.3448C14.4803 20.814 14.4683 21.572 14.9375 22.0412C15.1781 22.2819 15.4789 22.4022 15.7917 22.4022C16.1046 22.4022 16.4053 22.2819 16.6339 22.0533L17.4881 21.2111L19.1725 22.9315L18.3183 23.7737C17.8491 24.243 17.8371 25.0009 18.3063 25.4701C18.5469 25.7108 18.8477 25.8311 19.1605 25.8311C19.4733 25.8311 19.7741 25.7108 20.0027 25.4822L20.8569 24.64L22.5413 26.3605L21.6871 27.2026C21.2178 27.6719 21.2058 28.4298 21.675 28.899C21.9156 29.1397 22.2164 29.26 22.5292 29.26C22.842 29.26 23.1428 29.1397 23.3714 28.9111L24.2256 28.0689L25.91 29.7894L25.0558 30.6315C24.5866 31.1008 24.5745 31.8587 25.0438 32.328C25.2844 32.5686 25.5852 32.6889 25.898 32.6889C26.2108 32.6889 26.5116 32.5686 26.7402 32.34L27.5944 31.4978L29.2788 33.2183L28.4245 34.0605C27.9553 34.5297 27.9433 35.2876 28.4125 35.7569Z" fill="#097ED3"/>
<path d="M70.8996 36.5276C66.7609 32.419 61.2885 30.1704 55.4999 30.1704C51.1549 30.1704 47.0025 31.4335 43.4413 33.8071C43.4001 33.4601 43.3863 33.0992 43.3451 32.7661C43.2351 32.0026 42.5476 31.4613 41.7913 31.5862C41.0351 31.6973 40.5126 32.3913 40.6226 33.1547C40.7464 34.0153 40.8288 34.9036 40.8976 35.8059C40.6226 36.0418 40.3614 36.2917 40.1001 36.5554C37.9826 38.6514 36.3327 41.1082 35.2189 43.7871C25.6903 43.4679 17.303 39.7896 11.5281 33.3907C5.40941 26.6031 2.52196 17.0812 3.40194 6.60143C3.45694 5.89353 3.99319 5.36607 4.69442 5.32443C21.6754 4.17235 34.9852 12.7921 39.4676 27.8246C39.6876 28.5603 40.4439 28.9767 41.1863 28.7546C41.9151 28.5325 42.3276 27.7552 42.1076 27.0195C37.3227 10.8905 22.5554 1.28522 4.51568 2.52058C2.45321 2.65938 0.844485 4.26951 0.665738 6.3377C-0.282997 17.6086 2.85195 27.8663 9.4931 35.2368C15.598 42.0243 24.3566 45.9802 34.2977 46.5077C33.789 48.3954 33.5002 50.3664 33.5002 52.393C33.5002 53.7671 33.6377 55.1691 33.9127 56.5571H19.7504V51.0049C19.7504 48.7147 17.8942 46.8408 15.6255 46.8408C13.728 46.8408 12.1331 48.1595 11.6656 49.9223C11.1843 49.7279 10.6756 49.6169 10.1256 49.6169C7.85687 49.6169 6.00065 51.4908 6.00065 53.781V56.5571H1.87572C1.11948 56.5571 0.500741 57.1817 0.500741 57.9452V63.4973C0.500741 64.2608 1.11948 64.8854 1.87572 64.8854H6.00065V67.6615C6.00065 69.9517 7.85687 71.8256 10.1256 71.8256C10.6618 71.8256 11.1843 71.7146 11.6656 71.5202C12.1468 73.283 13.728 74.6017 15.6255 74.6017C17.8942 74.6017 19.7504 72.7278 19.7504 70.4376V64.8854H21.1254C21.8816 64.8854 22.5004 64.2608 22.5004 63.4973C22.5004 62.7339 21.8816 62.1093 21.1254 62.1093H19.7504V59.3332H36.2502V62.1093H26.6253C25.8691 62.1093 25.2503 62.7339 25.2503 63.4973C25.2503 64.2608 25.8691 64.8854 26.6253 64.8854H36.2502V70.4376C36.2502 72.7278 38.1064 74.6017 40.3751 74.6017C42.2726 74.6017 43.8676 73.283 44.335 71.5202C44.3625 71.5202 44.39 71.5341 44.4175 71.548C47.8 73.5468 51.6224 74.6017 55.4999 74.6017C61.2885 74.6017 66.7609 72.3392 70.8996 68.2444C75.162 64.0248 77.4995 58.4032 77.4995 52.393C77.4995 46.3828 75.162 40.7612 70.8996 36.5415V36.5276ZM6.00065 62.0954H3.2507V59.3193H6.00065V62.0954ZM11.5006 67.6476C11.5006 68.411 10.8818 69.0356 10.1256 69.0356C9.36935 69.0356 8.75061 68.411 8.75061 67.6476V53.7672C8.75061 53.0037 9.36935 52.3791 10.1256 52.3791C10.8818 52.3791 11.5006 53.0037 11.5006 53.7672V67.6476ZM17.0005 57.9313V70.4237C17.0005 71.1871 16.3817 71.8117 15.6255 71.8117C14.8693 71.8117 14.2505 71.1871 14.2505 70.4237V50.9911C14.2505 50.2276 14.8693 49.603 15.6255 49.603C16.3817 49.603 17.0005 50.2276 17.0005 50.9911V57.9313ZM41.7501 52.3791V70.4237C41.7501 71.1871 41.1313 71.8117 40.3751 71.8117C39.6189 71.8117 39.0001 71.1871 39.0001 70.4237V50.9911C39.0001 50.2276 39.6189 49.603 40.3751 49.603C41.1313 49.603 41.7501 50.2276 41.7501 50.9911V52.3791ZM44.335 49.9084C43.8538 48.1456 42.2726 46.8269 40.3751 46.8269C38.4776 46.8269 36.9377 48.1039 36.4289 49.839C36.6077 48.4371 36.9239 47.0768 37.3914 45.772C37.4052 45.7304 37.4464 45.7026 37.4602 45.661C38.1751 43.7038 39.2064 41.8855 40.4851 40.2615C40.5676 40.1504 40.6501 40.0533 40.7326 39.9422C40.8426 39.8034 40.9663 39.6924 41.0763 39.5675C43.5376 42.3991 45.1188 45.8831 45.6413 49.6308C45.1875 49.6585 44.7338 49.7418 44.335 49.9084ZM47.25 57.9313V67.6476C47.25 68.411 46.6313 69.0356 45.875 69.0356C45.1188 69.0356 44.5 68.411 44.5 67.6476V53.7672C44.5 53.323 44.72 52.9343 45.05 52.6845C45.1188 52.629 45.1738 52.5873 45.2563 52.5457C45.3113 52.5179 45.3663 52.4901 45.4213 52.4763C45.5725 52.4207 45.7238 52.3791 45.8888 52.3791C46.645 52.3791 47.2637 53.0037 47.2637 53.7672V57.9313H47.25ZM54.1249 71.7562C52.3099 71.6174 50.5362 71.1871 48.8175 70.5486C49.5462 69.7991 49.9999 68.7719 49.9999 67.6476V64.8715H54.1249V71.7562ZM49.9999 62.0954V59.3193H52.7499V62.0954H49.9999ZM54.1249 56.5432H49.9999V53.7672H54.1249V56.5432ZM54.1249 50.9911H48.9275C48.8037 50.8384 48.6525 50.7135 48.5012 50.5885C48.1162 45.7443 46.1913 41.2192 43.0151 37.6242C43.0701 37.5687 43.1251 37.5132 43.1938 37.4715C43.1938 37.4715 43.1938 37.4576 43.2076 37.4438C46.315 34.8342 50.0962 33.2935 54.1111 33.002V50.9911H54.1249ZM74.6946 50.9911H65.166C65.4547 46.7298 67.1184 42.7461 69.9234 39.5397C72.7283 42.7461 74.3921 46.7298 74.6808 50.9911H74.6946ZM56.8748 33.002C60.986 33.2935 64.8497 34.9036 67.9847 37.6242C64.671 41.358 62.746 46.008 62.4435 51.0049H56.8748V33.0159V33.002ZM56.8748 71.7701V53.781H62.4435C62.746 58.7641 64.671 63.4279 67.9847 67.1618C64.8497 69.8685 60.986 71.4925 56.8748 71.784V71.7701ZM69.9371 65.2324C67.1322 62.026 65.4822 58.0423 65.1797 53.781H74.6808C74.3783 58.0423 72.7421 62.026 69.9234 65.2324H69.9371Z" fill="#097ED3"/>
</g>
<defs>
<clipPath id="clip0_2017_340">
<rect width="77" height="77" fill="white" transform="translate(0.5)"/>
</clipPath>
</defs>
</svg>
