<svg width="212" height="84" viewBox="0 0 212 84" fill="none" xmlns="http://www.w3.org/2000/svg">
<g clip-path="url(#clip0_2008_202)">
<ellipse cx="47.2641" cy="39.9218" rx="12.3896" ry="12.3896" fill="black"/>
<path d="M22.026 0.458984H33.4978L10.5541 40.3811L21.1082 59.1949H67.4545L61.9481 68.3724H16.0606L0 40.3811L22.026 0.458984Z" fill="#EE1C21"/>
<path d="M87.1861 54.6062L64.7013 14.6841H53.6883L76.632 54.6062L66.0779 73.8789H19.2727L25.2381 83.5153H71.1255L87.1861 54.6062Z" fill="#097ED3"/>
<path d="M45.4285 8.71883L22.4848 49.5587L16.9783 39.9223L39.0043 0.917969H72.961L94.987 39.9223L89.4805 49.5587L66.5368 8.71883H45.4285Z" fill="white" stroke="#EFEFEF"/>
<path d="M115.986 26.8903H114.181C114.074 26.3708 113.887 25.9145 113.62 25.5213C113.358 25.128 113.037 24.7979 112.659 24.5309C112.285 24.259 111.87 24.0551 111.413 23.9192C110.957 23.7833 110.481 23.7153 109.986 23.7153C109.083 23.7153 108.265 23.9435 107.532 24.3998C106.804 24.8562 106.224 25.5285 105.792 26.4169C105.364 27.3053 105.151 28.3952 105.151 29.6866C105.151 30.9779 105.364 32.0678 105.792 32.9562C106.224 33.8446 106.804 34.517 107.532 34.9733C108.265 35.4297 109.083 35.6578 109.986 35.6578C110.481 35.6578 110.957 35.5899 111.413 35.4539C111.87 35.318 112.285 35.1165 112.659 34.8495C113.037 34.5777 113.358 34.2451 113.62 33.8519C113.887 33.4538 114.074 32.9975 114.181 32.4829H115.986C115.851 33.2451 115.603 33.9271 115.244 34.5291C114.884 35.1311 114.438 35.6433 113.904 36.0656C113.37 36.4831 112.77 36.8011 112.105 37.0196C111.445 37.238 110.739 37.3473 109.986 37.3473C108.714 37.3473 107.583 37.0366 106.593 36.4152C105.602 35.7938 104.823 34.9102 104.255 33.7645C103.687 32.6188 103.403 31.2595 103.403 29.6866C103.403 28.1137 103.687 26.7543 104.255 25.6086C104.823 24.4629 105.602 23.5794 106.593 22.958C107.583 22.3366 108.714 22.0259 109.986 22.0259C110.739 22.0259 111.445 22.1351 112.105 22.3536C112.77 22.572 113.37 22.8924 113.904 23.3148C114.438 23.7323 114.884 24.242 115.244 24.844C115.603 25.4411 115.851 26.1232 115.986 26.8903Z" fill="black"/>
<path d="M118.089 23.8318V22.2298H129.274V23.8318H124.585V37.1434H122.779V23.8318H118.089Z" fill="black"/>
<path d="M130.931 37.1434H129.038L134.514 22.2298H136.378L141.854 37.1434H139.961L135.504 24.5892H135.388L130.931 37.1434ZM131.63 31.3177H139.262V32.9198H131.63V31.3177Z" fill="black"/>
<path d="M144.177 37.1434V22.2298H145.983V28.871H153.935V22.2298H155.741V37.1434H153.935V30.473H145.983V37.1434H144.177Z" fill="black"/>
<path d="M158.075 40.7553V35.5413H159.036C159.366 35.2403 159.677 34.8155 159.968 34.267C160.264 33.7135 160.514 32.9756 160.718 32.0532C160.927 31.126 161.065 29.9487 161.133 28.5214L161.454 22.2298H170.309V35.5413H172.027V40.7261H170.309V37.1434H159.793V40.7553H158.075ZM161.191 35.5413H168.59V23.8318H163.085L162.852 28.5214C162.794 29.6089 162.692 30.5944 162.546 31.478C162.4 32.3566 162.213 33.1358 161.985 33.8155C161.757 34.4903 161.492 35.0656 161.191 35.5413Z" fill="black"/>
<path d="M175.368 37.1434H173.474L178.951 22.2298H180.815L186.291 37.1434H184.397L179.941 24.5892H179.824L175.368 37.1434ZM176.067 31.3177H183.698V32.9198H176.067V31.3177Z" fill="black"/>
<path d="M188.614 37.1434V22.2298H193.653C194.823 22.2298 195.779 22.441 196.522 22.8633C197.27 23.2808 197.823 23.8464 198.182 24.56C198.542 25.2737 198.721 26.0698 198.721 26.9485C198.721 27.8272 198.542 28.6258 198.182 29.3443C197.828 30.0628 197.279 30.6357 196.537 31.0629C195.794 31.4852 194.842 31.6964 193.682 31.6964H190.07V30.0944H193.624C194.425 30.0944 195.068 29.956 195.554 29.6793C196.039 29.4026 196.391 29.0288 196.609 28.5579C196.833 28.0821 196.944 27.5457 196.944 26.9485C196.944 26.3514 196.833 25.8174 196.609 25.3465C196.391 24.8756 196.037 24.5066 195.546 24.2396C195.056 23.9678 194.405 23.8318 193.595 23.8318H190.42V37.1434H188.614Z" fill="black"/>
<path d="M200.815 23.8318V22.2298H212V23.8318H207.31V37.1434H205.504V23.8318H200.815Z" fill="black"/>
<path d="M112.753 61.6821L107.627 54.837H105.792V61.6821H103.986V46.7686H105.792V53.235H106.578L112.55 46.7686H114.705L108.675 53.3224L114.909 61.6821H112.753Z" fill="black"/>
<path d="M115.961 61.6821V60.0218H116.398C117.019 60.0218 117.502 59.8228 117.847 59.4247C118.192 59.0266 118.439 58.3834 118.59 57.495C118.745 56.6066 118.85 55.4293 118.903 53.9632L119.165 46.7686H128.253V61.6821H126.447V48.3706H120.884L120.651 54.3127C120.592 55.8759 120.449 57.2061 120.221 58.3033C119.993 59.4004 119.592 60.2379 119.02 60.8156C118.447 61.3933 117.612 61.6821 116.515 61.6821H115.961Z" fill="black"/>
<path d="M131.861 46.7686H133.638V58.5072H133.784L141.94 46.7686H143.687V61.6821H141.882V49.9726H141.736L133.609 61.6821H131.861V46.7686Z" fill="black"/>
<path d="M147.301 46.7686H149.457L154.525 59.148H154.7L159.768 46.7686H161.923V61.6821H160.234V50.3513H160.088L155.428 61.6821H153.797L149.136 50.3513H148.991V61.6821H147.301V46.7686Z" fill="black"/>
<path d="M166.156 61.6821H164.263L169.739 46.7686H171.603L177.079 61.6821H175.186L170.729 49.1279H170.613L166.156 61.6821ZM166.855 55.8565H174.487V57.4586H166.855V55.8565Z" fill="black"/>
<path d="M176.844 48.3706V46.7686H188.03V48.3706H183.34V61.6821H181.534V48.3706H176.844Z" fill="black"/>
<path d="M189.686 61.6821H187.793L193.269 46.7686H195.133L200.609 61.6821H198.716L194.259 49.1279H194.143L189.686 61.6821ZM190.385 55.8565H198.017V57.4586H190.385V55.8565Z" fill="black"/>
</g>
<defs>
<clipPath id="clip0_2008_202">
<rect width="212" height="83.5152" fill="white"/>
</clipPath>
</defs>
</svg>
