<svg xmlns="http://www.w3.org/2000/svg" xmlns:xlink="http://www.w3.org/1999/xlink"><symbol id="sprite-close" viewBox="0 0 24 24"><path fill-rule="evenodd" clip-rule="evenodd" d="m10.94 12-4.092 4.092 1.061 1.06 4.092-4.09 4.091 4.09 1.06-1.06-4.09-4.091 4.09-4.092-1.06-1.06-4.091 4.09-4.092-4.09-1.06 1.06z"/></symbol><use xlink:href="#sprite-close" width="24" height="24" y="0"/><view id="sprite-close-view" viewBox="0 0 24 24"/><symbol id="sprite-email" viewBox="0 0 24 24"><path fill-rule="evenodd" clip-rule="evenodd" d="M3.5 7.472V17A1.5 1.5 0 0 0 5 18.5h14a1.5 1.5 0 0 0 1.5-1.5V7.472l-7.994 7.3a.75.75 0 0 1-1.012 0zM20.435 5.5H3.565L12 13.203zM2 5a1 1 0 0 1 1-1h18a1 1 0 0 1 1 1v12a3 3 0 0 1-3 3H5a3 3 0 0 1-3-3z"/><path d="M21 4a1 1 0 0 1 1 1v12a3 3 0 0 1-3 3H5a3 3 0 0 1-3-3V5a1 1 0 0 1 1-1zm-8.494 10.773a.75.75 0 0 1-1.012 0L3.5 7.473V17A1.5 1.5 0 0 0 5 18.5h14a1.5 1.5 0 0 0 1.5-1.5V7.473zM12 13.203 20.436 5.5H3.564z"/></symbol><use xlink:href="#sprite-email" width="24" height="24" y="24"/><view id="sprite-email-view" viewBox="0 24 24 24"/><symbol id="sprite-file" viewBox="0 0 24 24"><path fill-rule="evenodd" clip-rule="evenodd" d="M16 4.492a3.758 3.758 0 0 1 2.078 6.37l-.297.297-3.437 3.437-3.84 3.84a3.512 3.512 0 1 1-4.958-4.976l5.632-5.588a1.375 1.375 0 0 1 1.941 1.949l-5.907 5.907 1.06 1.06 5.908-5.907a2.875 2.875 0 0 0-4.059-4.074L4.49 12.395a5.012 5.012 0 1 0 7.074 7.102l3.84-3.84 3.438-3.437.297-.298A5.257 5.257 0 0 0 16 2.98z"/><path d="M16 2.98a5.258 5.258 0 0 1 3.139 8.943l-7.575 7.574a5.012 5.012 0 1 1-7.075-7.101l5.632-5.59a2.876 2.876 0 0 1 4.059 4.076l-5.908 5.906-1.06-1.06 5.907-5.908a1.375 1.375 0 0 0-1.941-1.948L5.546 13.46a3.512 3.512 0 1 0 4.957 4.976l7.278-7.277.297-.298A3.757 3.757 0 0 0 16 4.492z"/></symbol><use xlink:href="#sprite-file" width="24" height="24" y="48"/><view id="sprite-file-view" viewBox="0 48 24 24"/><symbol id="sprite-phone" viewBox="0 0 24 25"><path fill-rule="evenodd" clip-rule="evenodd" d="M4.7 4.515h-.033A.667.667 0 0 0 4 5.18v1.571c0 7.6 6.163 13.762 13.762 13.762h1.572a.667.667 0 0 0 .665-.7V16.64a.67.67 0 0 0-.426-.622l-3.777-1.458a.67.67 0 0 0-.663.107l-3.522 2.887a12.5 12.5 0 0 1-4.65-4.65l2.888-3.522a.67.67 0 0 0 .106-.663L8.496 4.94a.67.67 0 0 0-.622-.426zm1.611 7.077 2.26-2.755-1.154-2.989H5.333v.904c0 1.717.349 3.353.978 4.84m11.451 7.589a12.4 12.4 0 0 1-4.84-.978l2.756-2.259 2.988 1.153v2.084z"/></symbol><use xlink:href="#sprite-phone" width="24" height="25" y="72"/><view id="sprite-phone-view" viewBox="0 72 24 25"/><symbol id="sprite-select" viewBox="0 0 24 24"><path fill-rule="evenodd" clip-rule="evenodd" d="M11.47 15.534 5.996 10.06 7.057 9 12 13.942 16.941 9l1.06 1.06-5.471 5.474a.75.75 0 0 1-1.06 0"/></symbol><use xlink:href="#sprite-select" width="24" height="24" y="97"/><view id="sprite-select-view" viewBox="0 97 24 24"/><symbol id="sprite-user" viewBox="0 0 24 24"><path d="M22 12a10 10 0 1 0-10 10 10 10 0 0 0 10-10M12 3.5A8.5 8.5 0 0 0 3.5 12a8.48 8.48 0 0 0 3.173 6.624A5.5 5.5 0 0 1 12 14.5a5.5 5.5 0 0 1 5.327 4.124A8.48 8.48 0 0 0 20.5 12 8.5 8.5 0 0 0 12 3.5M12 16a4 4 0 0 0-3.971 3.517 8.46 8.46 0 0 0 3.97.983h.002a8.46 8.46 0 0 0 3.97-.983A4 4 0 0 0 12.001 16Zm3-6a3 3 0 0 0-3-3 3 3 0 1 0 3 3m-3-1.5a1.5 1.5 0 0 0-1.5 1.5 1.5 1.5 0 0 0 1.5 1.5 1.5 1.5 0 0 0 1.5-1.5A1.5 1.5 0 0 0 12 8.5" fill-rule="evenodd"/></symbol><use xlink:href="#sprite-user" width="24" height="24" y="121"/><view id="sprite-user-view" viewBox="0 121 24 24"/></svg>