<svg xmlns="http://www.w3.org/2000/svg" xmlns:xlink="http://www.w3.org/1999/xlink"><symbol id="sprite-phone" viewBox="0 0 24 25"><path fill-rule="evenodd" clip-rule="evenodd" d="M4.7 4.515h-.033A.667.667 0 0 0 4 5.18v1.571c0 7.6 6.163 13.762 13.762 13.762h1.572a.667.667 0 0 0 .665-.7V16.64a.67.67 0 0 0-.426-.622l-3.777-1.458a.67.67 0 0 0-.663.107l-3.522 2.887a12.5 12.5 0 0 1-4.65-4.65l2.888-3.522a.67.67 0 0 0 .106-.663L8.496 4.94a.67.67 0 0 0-.622-.426zm1.611 7.077 2.26-2.755-1.154-2.989H5.333v.904c0 1.717.349 3.353.978 4.84m11.451 7.589a12.4 12.4 0 0 1-4.84-.978l2.756-2.259 2.988 1.153v2.084z"/></symbol><use xlink:href="#sprite-phone" width="24" height="25" y="0"/><view id="sprite-phone-view" viewBox="0 0 24 25"/><symbol id="sprite-select" viewBox="0 0 24 24"><path fill-rule="evenodd" clip-rule="evenodd" d="M11.47 15.534 5.996 10.06 7.057 9 12 13.942 16.941 9l1.06 1.06-5.471 5.474a.75.75 0 0 1-1.06 0"/></symbol><use xlink:href="#sprite-select" width="24" height="24" y="25"/><view id="sprite-select-view" viewBox="0 25 24 24"/></svg>